<svg width="884" height="239" viewBox="0 0 884 239" fill="none" xmlns="http://www.w3.org/2000/svg">
<path d="M750.977 181.061L766.91 89.0818L752.908 81.1151V77.2525L804.088 67.5959H804.812V90.2889H806.502C811.492 84.6559 815.837 80.23 819.539 77.0111C823.24 73.6313 826.862 71.2172 830.402 69.7687C834.104 68.3202 838.449 67.5959 843.439 67.5959C852.13 67.5959 858.728 70.8148 863.235 77.2525C867.902 83.6902 869.27 92.3811 867.339 103.325L859.372 149.435C858.889 152.332 858.97 154.746 859.613 156.678C860.418 158.609 861.786 159.575 863.717 159.575C865.971 159.575 868.224 158.368 870.477 155.954C872.891 153.378 875.547 148.872 878.444 142.434L883.755 144.124C879.409 155.873 874.179 165.369 868.063 172.611C861.947 179.854 854.383 183.475 845.37 183.475C836.035 183.475 829.115 180.256 824.608 173.818C820.102 167.38 818.975 157.724 821.229 144.849L828.23 104.532C828.873 100.992 828.632 97.9337 827.505 95.3586C826.54 92.7835 824.206 91.4959 820.504 91.4959C817.446 91.4959 814.469 92.5421 811.572 94.6343C808.836 96.5656 806.18 98.8993 803.605 101.635L790.328 181.061H750.977Z" fill="#EA526F"/>
<path d="M750.977 181.061L766.91 89.0818L752.908 81.1151V77.2525L804.088 67.5959H804.812V90.2889H806.502C811.492 84.6559 815.837 80.23 819.539 77.0111C823.24 73.6313 826.862 71.2172 830.402 69.7687C834.104 68.3202 838.449 67.5959 843.439 67.5959C852.13 67.5959 858.728 70.8148 863.235 77.2525C867.902 83.6902 869.27 92.3811 867.339 103.325L859.372 149.435C858.889 152.332 858.97 154.746 859.613 156.678C860.418 158.609 861.786 159.575 863.717 159.575C865.971 159.575 868.224 158.368 870.477 155.954C872.891 153.378 875.547 148.872 878.444 142.434L883.755 144.124C879.409 155.873 874.179 165.369 868.063 172.611C861.947 179.854 854.383 183.475 845.37 183.475C836.035 183.475 829.115 180.256 824.608 173.818C820.102 167.38 818.975 157.724 821.229 144.849L828.23 104.532C828.873 100.992 828.632 97.9337 827.505 95.3586C826.54 92.7835 824.206 91.4959 820.504 91.4959C817.446 91.4959 814.469 92.5421 811.572 94.6343C808.836 96.5656 806.18 98.8993 803.605 101.635L790.328 181.061H750.977Z" fill="#4B244A"/>
<path d="M657.907 183.475C651.147 183.475 645.595 180.819 641.249 175.508C636.904 170.197 634.731 162.794 634.731 153.298C634.731 140.744 637.065 129.237 641.732 118.776C646.399 108.314 652.515 99.3017 660.079 91.7374C667.644 84.0121 675.932 78.0572 684.945 73.8727C693.958 69.6882 702.81 67.5959 711.501 67.5959C720.674 67.5959 727.756 69.8491 732.745 74.3555L747.713 70.0101H751.575L737.815 149.435C737.332 152.332 737.412 154.746 738.056 156.678C738.861 158.609 740.229 159.575 742.16 159.575C744.413 159.575 746.667 158.368 748.92 155.954C751.334 153.378 755.415 149.031 758.312 142.593L763.623 144.283C759.278 156.032 752.622 165.369 746.506 172.611C740.39 179.854 732.826 183.475 723.813 183.475C716.248 183.475 710.213 181.383 705.707 177.198C701.361 173.013 699.028 166.737 698.706 158.368H697.257C692.268 164.644 687.762 169.634 683.738 173.335C679.714 176.876 675.691 179.451 671.667 181.061C667.644 182.67 663.057 183.475 657.907 183.475ZM675.771 138.089C675.771 144.849 676.335 149.757 677.461 152.815C678.749 155.712 680.68 157.161 683.255 157.161C686.152 157.161 688.888 156.114 691.463 154.022C694.038 151.93 696.774 149.033 699.671 145.331V144.849L710.294 82.0808C707.879 80.4714 705.063 79.6667 701.844 79.6667C696.855 79.6667 692.349 82.4027 688.325 87.8747C684.462 93.1858 681.404 100.267 679.151 109.119C676.898 117.971 675.771 127.628 675.771 138.089Z" fill="#EA526F"/>
<path d="M657.907 183.475C651.147 183.475 645.595 180.819 641.249 175.508C636.904 170.197 634.731 162.794 634.731 153.298C634.731 140.744 637.065 129.237 641.732 118.776C646.399 108.314 652.515 99.3017 660.079 91.7374C667.644 84.0121 675.932 78.0572 684.945 73.8727C693.958 69.6882 702.81 67.5959 711.501 67.5959C720.674 67.5959 727.756 69.8491 732.745 74.3555L747.713 70.0101H751.575L737.815 149.435C737.332 152.332 737.412 154.746 738.056 156.678C738.861 158.609 740.229 159.575 742.16 159.575C744.413 159.575 746.667 158.368 748.92 155.954C751.334 153.378 755.415 149.031 758.312 142.593L763.623 144.283C759.278 156.032 752.622 165.369 746.506 172.611C740.39 179.854 732.826 183.475 723.813 183.475C716.248 183.475 710.213 181.383 705.707 177.198C701.361 173.013 699.028 166.737 698.706 158.368H697.257C692.268 164.644 687.762 169.634 683.738 173.335C679.714 176.876 675.691 179.451 671.667 181.061C667.644 182.67 663.057 183.475 657.907 183.475ZM675.771 138.089C675.771 144.849 676.335 149.757 677.461 152.815C678.749 155.712 680.68 157.161 683.255 157.161C686.152 157.161 688.888 156.114 691.463 154.022C694.038 151.93 696.774 149.033 699.671 145.331V144.849L710.294 82.0808C707.879 80.4714 705.063 79.6667 701.844 79.6667C696.855 79.6667 692.349 82.4027 688.325 87.8747C684.462 93.1858 681.404 100.267 679.151 109.119C676.898 117.971 675.771 127.628 675.771 138.089Z" fill="#4B244A"/>
<path d="M571.282 239C557.602 239 547.141 236.827 539.898 232.482C532.817 228.297 529.276 222.664 529.276 215.583C529.276 212.042 529.92 208.904 531.207 206.168C532.334 203.593 534.667 200.293 538.208 196.27L551.969 188.786V188.062C547.462 186.291 543.68 183.716 540.622 180.336C537.725 176.957 536.277 172.048 536.277 165.61C536.277 160.943 537.243 156.758 539.174 153.057C541.105 149.194 543.761 145.734 547.141 142.676L562.35 134.709V133.019C558.809 129.961 556.153 126.421 554.383 122.397C552.773 118.212 551.969 113.867 551.969 109.361C551.969 102.118 554.141 95.3586 558.487 89.0818C562.832 82.6441 568.707 77.4939 576.11 73.6313C583.675 69.6077 592.205 67.5959 601.7 67.5959C608.621 67.5959 614.817 68.4007 620.289 70.0101H661.571V80.6323H639.119L637.188 82.0808C639.924 84.8168 642.016 87.7943 643.465 91.0131C644.913 94.232 645.638 97.7727 645.638 101.635C645.638 108.556 643.465 115.155 639.119 121.431C634.935 127.708 628.899 132.858 621.013 136.882C613.127 140.905 603.873 142.917 593.251 142.917C588.422 142.917 583.996 142.515 579.973 141.71C576.11 140.744 572.65 139.457 569.592 137.847C566.534 140.262 565.005 142.837 565.005 145.573C565.005 149.435 566.776 152.252 570.316 154.022C573.857 155.793 578.363 157.161 583.835 158.126C589.308 158.931 595.182 159.897 601.459 161.023C607.736 161.989 613.61 163.518 619.082 165.61C624.554 167.702 629.06 170.921 632.601 175.267C636.142 179.451 637.912 185.326 637.912 192.89C637.912 200.132 635.337 207.294 630.187 214.376C625.037 221.457 617.473 227.332 607.494 231.999C597.677 236.666 585.606 239 571.282 239ZM595.665 132.778C598.723 132.778 601.459 131.088 603.873 127.708C606.287 124.328 608.138 119.902 609.425 114.43C610.874 108.797 611.598 102.842 611.598 96.5657C611.598 89.967 610.874 85.0582 609.425 81.8394C608.138 78.6205 605.321 77.0111 600.976 77.0111C597.918 77.0111 595.182 78.701 592.768 82.0808C590.354 85.4606 588.422 89.8865 586.974 95.3586C585.686 100.831 585.043 106.866 585.043 113.465C585.043 119.42 585.767 124.167 587.215 127.708C588.664 131.088 591.48 132.778 595.665 132.778ZM552.452 211.237C552.452 216.227 554.302 220.653 558.004 224.515C561.706 228.539 567.419 230.551 575.145 230.551C583.675 230.551 590.273 228.378 594.941 224.032C599.608 219.848 601.942 215.18 601.942 210.03C601.942 205.846 600.734 202.627 598.32 200.374C596.067 198.282 593.009 196.672 589.147 195.545C585.445 194.419 581.26 193.534 576.593 192.89C571.926 192.407 567.339 191.763 562.832 190.959C558.809 193.373 556.073 196.27 554.624 199.65C553.176 203.029 552.452 206.892 552.452 211.237Z" fill="#EA526F"/>
<path d="M571.282 239C557.602 239 547.141 236.827 539.898 232.482C532.817 228.297 529.276 222.664 529.276 215.583C529.276 212.042 529.92 208.904 531.207 206.168C532.334 203.593 534.667 200.293 538.208 196.27L551.969 188.786V188.062C547.462 186.291 543.68 183.716 540.622 180.336C537.725 176.957 536.277 172.048 536.277 165.61C536.277 160.943 537.243 156.758 539.174 153.057C541.105 149.194 543.761 145.734 547.141 142.676L562.35 134.709V133.019C558.809 129.961 556.153 126.421 554.383 122.397C552.773 118.212 551.969 113.867 551.969 109.361C551.969 102.118 554.141 95.3586 558.487 89.0818C562.832 82.6441 568.707 77.4939 576.11 73.6313C583.675 69.6077 592.205 67.5959 601.7 67.5959C608.621 67.5959 614.817 68.4007 620.289 70.0101H661.571V80.6323H639.119L637.188 82.0808C639.924 84.8168 642.016 87.7943 643.465 91.0131C644.913 94.232 645.638 97.7727 645.638 101.635C645.638 108.556 643.465 115.155 639.119 121.431C634.935 127.708 628.899 132.858 621.013 136.882C613.127 140.905 603.873 142.917 593.251 142.917C588.422 142.917 583.996 142.515 579.973 141.71C576.11 140.744 572.65 139.457 569.592 137.847C566.534 140.262 565.005 142.837 565.005 145.573C565.005 149.435 566.776 152.252 570.316 154.022C573.857 155.793 578.363 157.161 583.835 158.126C589.308 158.931 595.182 159.897 601.459 161.023C607.736 161.989 613.61 163.518 619.082 165.61C624.554 167.702 629.06 170.921 632.601 175.267C636.142 179.451 637.912 185.326 637.912 192.89C637.912 200.132 635.337 207.294 630.187 214.376C625.037 221.457 617.473 227.332 607.494 231.999C597.677 236.666 585.606 239 571.282 239ZM595.665 132.778C598.723 132.778 601.459 131.088 603.873 127.708C606.287 124.328 608.138 119.902 609.425 114.43C610.874 108.797 611.598 102.842 611.598 96.5657C611.598 89.967 610.874 85.0582 609.425 81.8394C608.138 78.6205 605.321 77.0111 600.976 77.0111C597.918 77.0111 595.182 78.701 592.768 82.0808C590.354 85.4606 588.422 89.8865 586.974 95.3586C585.686 100.831 585.043 106.866 585.043 113.465C585.043 119.42 585.767 124.167 587.215 127.708C588.664 131.088 591.48 132.778 595.665 132.778ZM552.452 211.237C552.452 216.227 554.302 220.653 558.004 224.515C561.706 228.539 567.419 230.551 575.145 230.551C583.675 230.551 590.273 228.378 594.941 224.032C599.608 219.848 601.942 215.18 601.942 210.03C601.942 205.846 600.734 202.627 598.32 200.374C596.067 198.282 593.009 196.672 589.147 195.545C585.445 194.419 581.26 193.534 576.593 192.89C571.926 192.407 567.339 191.763 562.832 190.959C558.809 193.373 556.073 196.27 554.624 199.65C553.176 203.029 552.452 206.892 552.452 211.237Z" fill="#4B244A"/>
<path d="M529.863 46.5928C524.391 46.5928 519.804 44.8225 516.102 41.2817C512.562 37.741 510.791 33.2346 510.791 27.7625C510.791 22.1295 512.562 17.5427 516.102 14.0019C519.804 10.4612 524.391 8.6908 529.863 8.6908C535.335 8.6908 539.841 10.4612 543.382 14.0019C546.923 17.5427 548.693 22.1295 548.693 27.7625C548.693 33.2346 546.923 37.741 543.382 41.2817C539.841 44.8225 535.335 46.5928 529.863 46.5928ZM514.412 183.475C505.078 183.475 498.157 180.256 493.651 173.818C489.144 167.38 488.018 157.724 490.271 144.848L500.169 89.0817L486.167 81.1151V77.2524L542.175 67.5959H542.899L528.414 149.435C527.932 152.332 528.012 154.746 528.656 156.678C529.461 158.609 530.829 159.575 532.76 159.575C535.013 159.575 537.266 158.368 539.52 155.953C541.934 153.378 542.103 155.873 545 149.435L552.797 144.124C548.452 155.873 543.221 165.369 537.105 172.611C530.99 179.853 523.425 183.475 514.412 183.475Z" fill="#EA526F"/>
<path d="M529.863 46.5928C524.391 46.5928 519.804 44.8225 516.102 41.2817C512.562 37.741 510.791 33.2346 510.791 27.7625C510.791 22.1295 512.562 17.5427 516.102 14.0019C519.804 10.4612 524.391 8.6908 529.863 8.6908C535.335 8.6908 539.841 10.4612 543.382 14.0019C546.923 17.5427 548.693 22.1295 548.693 27.7625C548.693 33.2346 546.923 37.741 543.382 41.2817C539.841 44.8225 535.335 46.5928 529.863 46.5928ZM514.412 183.475C505.078 183.475 498.157 180.256 493.651 173.818C489.144 167.38 488.018 157.724 490.271 144.848L500.169 89.0817L486.167 81.1151V77.2524L542.175 67.5959H542.899L528.414 149.435C527.932 152.332 528.012 154.746 528.656 156.678C529.461 158.609 530.829 159.575 532.76 159.575C535.013 159.575 537.266 158.368 539.52 155.953C541.934 153.378 542.103 155.873 545 149.435L552.797 144.124C548.452 155.873 543.221 165.369 537.105 172.611C530.99 179.853 523.425 183.475 514.412 183.475Z" fill="#4B244A"/>
<path d="M338.146 183.475C331.386 183.475 325.834 180.819 321.488 175.508C317.143 170.197 314.97 162.794 314.97 153.298C314.97 140.744 317.304 129.237 321.971 118.776C326.639 108.314 332.754 99.3017 340.319 91.7374C347.883 84.0121 356.172 78.0572 365.184 73.8727C374.197 69.6882 383.049 67.5959 391.74 67.5959C395.532 67.5959 398.967 67.981 402.045 68.7512C409.533 70.6254 417.497 73.0456 424.91 70.8934L427.556 70.1252C427.819 70.0488 428.091 70.0101 428.365 70.0101C430.167 70.0101 431.533 71.6339 431.226 73.4091L418.054 149.435C417.571 152.332 417.652 154.746 418.296 156.678C419.1 158.609 420.468 159.575 422.4 159.575C424.653 159.575 426.906 158.368 429.159 155.954C431.271 153.701 433.568 149.969 436.05 144.76C436.678 143.442 438.176 142.769 439.568 143.211C441.13 143.709 441.964 145.413 441.362 146.938C437.237 157.398 432.365 165.956 426.745 172.611C420.629 179.854 413.065 183.475 404.052 183.475C396.488 183.475 390.452 181.383 385.946 177.198C381.769 173.176 379.451 167.221 378.992 159.332C378.96 158.795 378.519 158.368 377.98 158.368C377.675 158.368 377.385 158.508 377.195 158.747C372.325 164.846 367.92 169.709 363.977 173.335C359.954 176.876 355.93 179.451 351.907 181.061C347.883 182.67 343.296 183.475 338.146 183.475ZM356.011 138.089C356.011 144.849 356.574 149.757 357.701 152.815C358.988 155.712 360.919 157.161 363.494 157.161C366.391 157.161 369.127 156.114 371.703 154.022C374.206 151.988 376.862 149.193 379.671 145.637C379.826 145.439 379.911 145.195 379.911 144.943C379.911 144.88 379.916 144.817 379.926 144.755L389.045 90.8752C389.95 85.5253 387.509 79.6667 382.083 79.6667C377.094 79.6667 372.588 82.4027 368.564 87.8747C364.702 93.1858 361.644 100.267 359.39 109.119C357.137 117.971 356.011 127.628 356.011 138.089Z" fill="#EA526F"/>
<path d="M318.193 137.847C318.193 145.573 316.101 152.976 311.916 160.058C307.893 166.978 302.099 172.611 294.534 176.957C287.131 181.302 278.199 183.475 267.737 183.475C258.564 183.475 251.402 181.543 246.252 177.681C241.101 173.818 238.526 170.117 238.526 166.576C238.526 166.541 238.527 166.506 238.527 166.471C238.546 164.062 239.978 161.985 241.423 160.058L250.145 146.486C250.324 146.207 250.753 146.423 250.636 146.733C250.624 146.764 250.618 146.794 250.618 146.828C250.659 153.469 259.142 171.627 274.256 170.197C279.245 170.197 283.188 169.231 286.085 167.3C289.143 165.208 290.672 162.633 290.672 159.575C290.672 157 290.109 154.827 288.982 153.057C287.855 151.125 285.683 149.033 282.464 146.78C279.245 144.527 274.336 141.63 267.737 138.089C263.231 135.514 259.368 133.019 256.15 130.605C252.931 128.03 250.436 124.972 248.666 121.431C247.056 117.73 246.252 112.901 246.252 106.946C246.252 102.44 247.7 97.9337 250.597 93.4273C253.494 88.7599 257.437 84.4949 262.426 80.6323C267.416 76.7697 272.968 73.6313 279.084 71.2172C285.361 68.803 291.718 67.5959 298.156 67.5959C303.628 67.5959 308.054 68.5616 311.433 70.4929C314.813 72.4242 317.308 74.6774 318.917 77.2525C320.527 79.8276 321.331 82.0808 321.331 84.0121C321.331 85.1387 321.09 86.1044 320.607 86.9091C320.285 87.5529 319.481 88.438 318.193 89.5646C312.082 94.589 303.121 94.0079 297.71 88.2365L295.688 86.0793C291.636 81.7573 285.008 78.6842 280.53 82.5632C280.18 82.8669 279.859 83.1889 279.567 83.5293C277.635 85.7825 276.67 88.2771 276.67 91.0131C276.67 93.7492 277.796 96.4047 280.05 98.9798C282.303 101.394 287.373 104.693 295.259 108.878C301.375 111.936 306.686 115.557 311.192 119.741C315.859 123.926 318.193 129.961 318.193 137.847Z" fill="#EA526F"/>
<path d="M147.145 183.475C140.386 183.475 134.833 180.819 130.488 175.508C126.142 170.197 123.97 162.794 123.97 153.298C123.97 140.744 126.303 129.237 130.971 118.776C135.638 108.314 141.754 99.3017 149.318 91.7374C156.883 84.0121 165.171 78.0572 174.184 73.8727C183.197 69.6882 192.049 67.5959 200.739 67.5959C204.532 67.5959 207.967 67.981 211.044 68.7512C218.533 70.6254 226.496 73.0456 233.909 70.8934L236.555 70.1252C236.818 70.0488 237.091 70.0101 237.364 70.0101C239.166 70.0101 240.533 71.6339 240.225 73.4091L227.054 149.435C226.571 152.332 226.651 154.746 227.295 156.678C228.1 158.609 229.468 159.575 231.399 159.575C233.652 159.575 235.905 158.368 238.159 155.954C240.254 153.718 242.532 150.027 244.991 144.881C245.651 143.502 247.231 142.81 248.678 143.302C250.258 143.84 251.086 145.576 250.47 147.127C246.331 157.55 241.358 165.963 235.745 172.611C229.629 179.854 222.064 183.475 213.052 183.475C205.487 183.475 199.452 181.383 194.945 177.198C190.769 173.176 188.45 167.221 187.991 159.332C187.96 158.795 187.518 158.368 186.98 158.368C186.674 158.368 186.385 158.508 186.194 158.747C181.325 164.846 176.919 169.709 172.977 173.335C168.953 176.876 164.93 179.451 160.906 181.061C156.883 182.67 152.296 183.475 147.145 183.475ZM165.01 138.089C165.01 144.849 165.573 149.757 166.7 152.815C167.988 155.712 169.919 157.161 172.494 157.161C175.391 157.161 178.127 156.114 180.702 154.022C183.206 151.988 185.862 149.193 188.67 145.637C188.826 145.439 188.91 145.195 188.91 144.943C188.91 144.88 188.915 144.817 188.926 144.755L198.044 90.8752C198.949 85.5253 196.509 79.6667 191.083 79.6667C186.094 79.6667 181.587 82.4027 177.564 87.8747C173.701 93.1858 170.643 100.267 168.39 109.119C166.137 117.971 165.01 127.628 165.01 138.089Z" fill="#EA526F"/>
<path d="M69.7687 183.475C55.6057 183.475 43.2936 180.658 32.8323 175.025C22.3711 169.392 14.2434 161.667 8.4495 151.85C2.8165 142.032 0 130.846 0 118.293C0 105.418 2.49461 93.1054 7.48384 81.3566C12.634 69.4468 19.7155 58.8246 28.7283 49.4899C37.7411 40.1552 48.2828 32.8323 60.3536 27.5212C72.4243 22.0491 85.4606 19.3131 99.4627 19.3131C109.28 19.3131 117.086 20.4397 122.88 22.6929C133.489 26.8188 138.908 38.0835 137.914 49.4236L135.656 75.2004C135.53 76.6349 134.329 77.7353 132.889 77.7353C131.793 77.7353 130.8 77.0914 130.353 76.0912L117.805 48.0156C113.869 39.2069 107.266 31.2358 97.6222 30.9287C97.0409 30.9102 96.4474 30.901 95.8414 30.901C88.4381 30.901 81.5175 33.3151 75.0798 38.1434C68.6421 42.9717 63.0091 49.6508 58.1808 58.1808C53.3525 66.7108 49.5704 76.6892 46.8344 88.1162C44.0983 99.3822 42.7303 111.533 42.7303 124.57C42.7303 138.411 45.5468 149.596 51.1798 158.126C56.9738 166.495 65.0209 170.68 75.3212 170.68C78.862 170.68 82.4027 170.358 85.9435 169.714C89.6452 168.909 99.734 166.915 107.278 160.314C107.278 160.314 115.765 152.77 120.481 146.169C124.069 141.145 126.522 133.354 127.489 129.919C127.774 128.906 128.691 128.191 129.743 128.191C131.104 128.191 132.161 129.375 132.008 130.727L129.041 156.978C128.383 162.801 125.925 168.476 121.014 171.673C113.579 176.515 105.813 178.266 98.497 180.095C88.8404 182.348 79.2643 183.475 69.7687 183.475Z" fill="#EA526F"/>
<path d="M458.979 183.475C449.644 183.475 442.724 180.256 438.217 173.818C433.711 167.381 432.584 157.724 434.838 144.849L456.565 21.4859L439.907 13.5192V9.65657L498.812 0H499.537L472.981 149.435C472.498 152.332 472.579 154.747 473.222 156.678C474.027 158.609 475.395 159.575 477.326 159.575C479.58 159.575 481.833 158.368 484.086 155.954C486.5 153.379 489.156 148.872 492.053 142.434L497.364 144.124C493.018 155.873 487.788 165.369 481.672 172.611C475.556 179.854 467.992 183.475 458.979 183.475Z" fill="#EA526F"/>
<path d="M458.979 183.475C449.644 183.475 442.724 180.256 438.217 173.818C433.711 167.381 432.584 157.724 434.838 144.849L456.565 21.4859L439.907 13.5192V9.65657L498.812 0H499.537L472.981 149.435C472.498 152.332 472.579 154.747 473.222 156.678C474.027 158.609 475.395 159.575 477.326 159.575C479.58 159.575 481.833 158.368 484.086 155.954C486.5 153.379 489.156 148.872 492.053 142.434L497.364 144.124C493.018 155.873 487.788 165.369 481.672 172.611C475.556 179.854 467.992 183.475 458.979 183.475Z" fill="#4B244A"/>
</svg>
