<svg width="156" height="31" viewBox="0 0 156 31" fill="none" xmlns="http://www.w3.org/2000/svg">
<path d="M6.36364 24V11.0824L1.90909 14.1176L0 11.8588L17.5 0L23.8636 4.30588V1.41176H28.6364V7.55294L35 11.8588L33.0909 14.1176L28.6364 11.0824V24H19.0909V15.5294H15.9091V24H6.36364ZM9.54545 21.1765H12.7273V12.7059H22.2727V21.1765H25.4545V8.92941L17.5 3.56471L9.54545 8.92941V21.1765ZM14.3182 9.91765H20.6818C20.6818 9.16471 20.3636 8.54706 19.7273 8.06471C19.0909 7.58235 18.3485 7.34118 17.5 7.34118C16.6515 7.34118 15.9091 7.58235 15.2727 8.06471C14.6364 8.54706 14.3182 9.16471 14.3182 9.91765Z" fill="url(#paint0_linear_126_4255)"/>
<path d="M140.074 23.4851L141.985 11.5545L140.306 10.5212V10.0201L146.444 8.76758H146.531V11.7111H146.734C147.332 10.9804 147.854 10.4063 148.298 9.98882C148.742 9.55043 149.176 9.23729 149.601 9.0494C150.045 8.86152 150.566 8.76758 151.164 8.76758C152.207 8.76758 152.998 9.1851 153.539 10.0201C154.098 10.8552 154.263 11.9825 154.031 13.402L153.075 19.383C153.017 19.7588 153.027 20.0719 153.104 20.3224C153.201 20.5729 153.365 20.6982 153.597 20.6982C153.867 20.6982 154.137 20.5416 154.407 20.2285C154.697 19.8945 155.015 19.3099 155.363 18.4749L156 18.6941C155.479 20.218 154.851 21.4497 154.118 22.3891C153.384 23.3285 152.477 23.7983 151.396 23.7983C150.276 23.7983 149.446 23.3807 148.906 22.5457C148.365 21.7107 148.23 20.4581 148.5 18.788L149.34 13.5586C149.417 13.0993 149.388 12.7027 149.253 12.3687C149.137 12.0347 148.857 11.8677 148.413 11.8677C148.047 11.8677 147.69 12.0033 147.342 12.2747C147.014 12.5252 146.695 12.8279 146.387 13.1828L144.794 23.4851H140.074Z" fill="#EA526F"/>
<path d="M140.074 23.4851L141.985 11.5545L140.306 10.5212V10.0201L146.444 8.76758H146.531V11.7111H146.734C147.332 10.9804 147.854 10.4063 148.298 9.98882C148.742 9.55043 149.176 9.23729 149.601 9.0494C150.045 8.86152 150.566 8.76758 151.164 8.76758C152.207 8.76758 152.998 9.1851 153.539 10.0201C154.098 10.8552 154.263 11.9825 154.031 13.402L153.075 19.383C153.017 19.7588 153.027 20.0719 153.104 20.3224C153.201 20.5729 153.365 20.6982 153.597 20.6982C153.867 20.6982 154.137 20.5416 154.407 20.2285C154.697 19.8945 155.015 19.3099 155.363 18.4749L156 18.6941C155.479 20.218 154.851 21.4497 154.118 22.3891C153.384 23.3285 152.477 23.7983 151.396 23.7983C150.276 23.7983 149.446 23.3807 148.906 22.5457C148.365 21.7107 148.23 20.4581 148.5 18.788L149.34 13.5586C149.417 13.0993 149.388 12.7027 149.253 12.3687C149.137 12.0347 148.857 11.8677 148.413 11.8677C148.047 11.8677 147.69 12.0033 147.342 12.2747C147.014 12.5252 146.695 12.8279 146.387 13.1828L144.794 23.4851H140.074Z" fill="#4B244A"/>
<path d="M128.911 23.7983C128.1 23.7983 127.434 23.4538 126.913 22.7649C126.392 22.076 126.131 21.1157 126.131 19.884C126.131 18.2557 126.411 16.7631 126.971 15.4061C127.531 14.0492 128.264 12.8801 129.172 11.899C130.079 10.8969 131.073 10.1245 132.154 9.58174C133.235 9.03897 134.297 8.76758 135.339 8.76758C136.44 8.76758 137.289 9.05984 137.887 9.64437L139.683 9.08072H140.146L138.495 19.383C138.438 19.7588 138.447 20.0719 138.524 20.3224C138.621 20.5729 138.785 20.6982 139.017 20.6982C139.287 20.6982 139.557 20.5416 139.827 20.2285C140.117 19.8945 140.606 19.3305 140.954 18.4954L141.591 18.7146C141.07 20.2386 140.271 21.4497 139.538 22.3891C138.804 23.3285 137.897 23.7983 136.816 23.7983C135.909 23.7983 135.185 23.5269 134.644 22.9841C134.123 22.4413 133.843 21.6272 133.805 20.5416H133.631C133.032 21.3558 132.492 22.0029 132.009 22.4831C131.527 22.9423 131.044 23.2764 130.562 23.4851C130.079 23.6939 129.529 23.7983 128.911 23.7983ZM131.054 17.9112C131.054 18.788 131.121 19.4247 131.257 19.8214C131.411 20.1972 131.643 20.385 131.951 20.385C132.299 20.385 132.627 20.2493 132.936 19.978C133.245 19.7066 133.573 19.3308 133.92 18.8507V18.788L135.195 10.6464C134.905 10.4377 134.567 10.3333 134.181 10.3333C133.583 10.3333 133.042 10.6882 132.56 11.3979C132.096 12.0869 131.729 13.0054 131.459 14.1536C131.189 15.3017 131.054 16.5543 131.054 17.9112Z" fill="#EA526F"/>
<path d="M128.911 23.7983C128.1 23.7983 127.434 23.4538 126.913 22.7649C126.392 22.076 126.131 21.1157 126.131 19.884C126.131 18.2557 126.411 16.7631 126.971 15.4061C127.531 14.0492 128.264 12.8801 129.172 11.899C130.079 10.8969 131.073 10.1245 132.154 9.58174C133.235 9.03897 134.297 8.76758 135.339 8.76758C136.44 8.76758 137.289 9.05984 137.887 9.64437L139.683 9.08072H140.146L138.495 19.383C138.438 19.7588 138.447 20.0719 138.524 20.3224C138.621 20.5729 138.785 20.6982 139.017 20.6982C139.287 20.6982 139.557 20.5416 139.827 20.2285C140.117 19.8945 140.606 19.3305 140.954 18.4954L141.591 18.7146C141.07 20.2386 140.271 21.4497 139.538 22.3891C138.804 23.3285 137.897 23.7983 136.816 23.7983C135.909 23.7983 135.185 23.5269 134.644 22.9841C134.123 22.4413 133.843 21.6272 133.805 20.5416H133.631C133.032 21.3558 132.492 22.0029 132.009 22.4831C131.527 22.9423 131.044 23.2764 130.562 23.4851C130.079 23.6939 129.529 23.7983 128.911 23.7983ZM131.054 17.9112C131.054 18.788 131.121 19.4247 131.257 19.8214C131.411 20.1972 131.643 20.385 131.951 20.385C132.299 20.385 132.627 20.2493 132.936 19.978C133.245 19.7066 133.573 19.3308 133.92 18.8507V18.788L135.195 10.6464C134.905 10.4377 134.567 10.3333 134.181 10.3333C133.583 10.3333 133.042 10.6882 132.56 11.3979C132.096 12.0869 131.729 13.0054 131.459 14.1536C131.189 15.3017 131.054 16.5543 131.054 17.9112Z" fill="#4B244A"/>
<path d="M118.521 31.0004C116.88 31.0004 115.626 30.7186 114.757 30.155C113.908 29.6122 113.483 28.8815 113.483 27.963C113.483 27.5037 113.56 27.0966 113.715 26.7418C113.85 26.4077 114.13 25.9798 114.554 25.4579L116.205 24.4872V24.3932C115.664 24.1636 115.211 23.8296 114.844 23.3912C114.496 22.9528 114.323 22.3161 114.323 21.481C114.323 20.8756 114.438 20.3328 114.67 19.8527C114.902 19.3517 115.22 18.9028 115.626 18.5062L117.45 17.4728V17.2536C117.025 16.857 116.707 16.3977 116.494 15.8758C116.301 15.3331 116.205 14.7694 116.205 14.1849C116.205 13.2455 116.465 12.3687 116.987 11.5545C117.508 10.7195 118.212 10.0514 119.1 9.55042C120.008 9.02853 121.031 8.76758 122.17 8.76758C123 8.76758 123.743 8.87196 124.399 9.08072H129.351V10.4585H126.658L126.426 10.6464C126.754 11.0013 127.005 11.3875 127.179 11.805C127.353 12.2225 127.44 12.6818 127.44 13.1828C127.44 14.0805 127.179 14.9364 126.658 15.7506C126.156 16.5647 125.432 17.2328 124.486 17.7547C123.54 18.2766 122.43 18.5375 121.156 18.5375C120.577 18.5375 120.046 18.4853 119.564 18.3809C119.1 18.2557 118.685 18.0887 118.319 17.8799C117.952 18.1931 117.768 18.5271 117.768 18.882C117.768 19.383 117.981 19.7483 118.405 19.978C118.83 20.2076 119.371 20.385 120.027 20.5103C120.683 20.6147 121.388 20.7399 122.141 20.8861C122.894 21.0113 123.598 21.2096 124.254 21.481C124.911 21.7524 125.451 22.1699 125.876 22.7336C126.301 23.2764 126.513 24.0383 126.513 25.0195C126.513 25.9589 126.204 26.8879 125.586 27.8064C124.969 28.725 124.061 29.4869 122.865 30.0923C121.687 30.6977 120.239 31.0004 118.521 31.0004ZM121.446 17.2223C121.813 17.2223 122.141 17.0031 122.43 16.5647C122.72 16.1263 122.942 15.5523 123.096 14.8425C123.27 14.1118 123.357 13.3394 123.357 12.5252C123.357 11.6693 123.27 11.0326 123.096 10.6151C122.942 10.1976 122.604 9.98882 122.083 9.98882C121.716 9.98882 121.388 10.208 121.098 10.6464C120.809 11.0848 120.577 11.6589 120.403 12.3687C120.249 13.0785 120.172 13.8613 120.172 14.7172C120.172 15.4896 120.259 16.1055 120.432 16.5647C120.606 17.0031 120.944 17.2223 121.446 17.2223ZM116.263 27.3993C116.263 28.0465 116.485 28.6206 116.929 29.1216C117.373 29.6435 118.058 29.9045 118.985 29.9045C120.008 29.9045 120.799 29.6226 121.359 29.059C121.919 28.5162 122.199 27.9108 122.199 27.2428C122.199 26.7 122.054 26.2825 121.764 25.9902C121.494 25.7188 121.127 25.5101 120.664 25.3639C120.22 25.2178 119.718 25.103 119.158 25.0195C118.598 24.9569 118.048 24.8734 117.508 24.769C117.025 25.0821 116.697 25.4579 116.523 25.8963C116.35 26.3347 116.263 26.8357 116.263 27.3993Z" fill="#EA526F"/>
<path d="M118.521 31.0004C116.88 31.0004 115.626 30.7186 114.757 30.155C113.908 29.6122 113.483 28.8815 113.483 27.963C113.483 27.5037 113.56 27.0966 113.715 26.7418C113.85 26.4077 114.13 25.9798 114.554 25.4579L116.205 24.4872V24.3932C115.664 24.1636 115.211 23.8296 114.844 23.3912C114.496 22.9528 114.323 22.3161 114.323 21.481C114.323 20.8756 114.438 20.3328 114.67 19.8527C114.902 19.3517 115.22 18.9028 115.626 18.5062L117.45 17.4728V17.2536C117.025 16.857 116.707 16.3977 116.494 15.8758C116.301 15.3331 116.205 14.7694 116.205 14.1849C116.205 13.2455 116.465 12.3687 116.987 11.5545C117.508 10.7195 118.212 10.0514 119.1 9.55042C120.008 9.02853 121.031 8.76758 122.17 8.76758C123 8.76758 123.743 8.87196 124.399 9.08072H129.351V10.4585H126.658L126.426 10.6464C126.754 11.0013 127.005 11.3875 127.179 11.805C127.353 12.2225 127.44 12.6818 127.44 13.1828C127.44 14.0805 127.179 14.9364 126.658 15.7506C126.156 16.5647 125.432 17.2328 124.486 17.7547C123.54 18.2766 122.43 18.5375 121.156 18.5375C120.577 18.5375 120.046 18.4853 119.564 18.3809C119.1 18.2557 118.685 18.0887 118.319 17.8799C117.952 18.1931 117.768 18.5271 117.768 18.882C117.768 19.383 117.981 19.7483 118.405 19.978C118.83 20.2076 119.371 20.385 120.027 20.5103C120.683 20.6147 121.388 20.7399 122.141 20.8861C122.894 21.0113 123.598 21.2096 124.254 21.481C124.911 21.7524 125.451 22.1699 125.876 22.7336C126.301 23.2764 126.513 24.0383 126.513 25.0195C126.513 25.9589 126.204 26.8879 125.586 27.8064C124.969 28.725 124.061 29.4869 122.865 30.0923C121.687 30.6977 120.239 31.0004 118.521 31.0004ZM121.446 17.2223C121.813 17.2223 122.141 17.0031 122.43 16.5647C122.72 16.1263 122.942 15.5523 123.096 14.8425C123.27 14.1118 123.357 13.3394 123.357 12.5252C123.357 11.6693 123.27 11.0326 123.096 10.6151C122.942 10.1976 122.604 9.98882 122.083 9.98882C121.716 9.98882 121.388 10.208 121.098 10.6464C120.809 11.0848 120.577 11.6589 120.403 12.3687C120.249 13.0785 120.172 13.8613 120.172 14.7172C120.172 15.4896 120.259 16.1055 120.432 16.5647C120.606 17.0031 120.944 17.2223 121.446 17.2223ZM116.263 27.3993C116.263 28.0465 116.485 28.6206 116.929 29.1216C117.373 29.6435 118.058 29.9045 118.985 29.9045C120.008 29.9045 120.799 29.6226 121.359 29.059C121.919 28.5162 122.199 27.9108 122.199 27.2428C122.199 26.7 122.054 26.2825 121.764 25.9902C121.494 25.7188 121.127 25.5101 120.664 25.3639C120.22 25.2178 119.718 25.103 119.158 25.0195C118.598 24.9569 118.048 24.8734 117.508 24.769C117.025 25.0821 116.697 25.4579 116.523 25.8963C116.35 26.3347 116.263 26.8357 116.263 27.3993Z" fill="#4B244A"/>
<path d="M113.553 6.04324C112.897 6.04324 112.347 5.8136 111.903 5.35433C111.478 4.89506 111.266 4.31053 111.266 3.60075C111.266 2.87009 111.478 2.27513 111.903 1.81586C112.347 1.35659 112.897 1.12695 113.553 1.12695C114.209 1.12695 114.75 1.35659 115.175 1.81586C115.599 2.27513 115.812 2.87009 115.812 3.60075C115.812 4.31053 115.599 4.89506 115.175 5.35433C114.75 5.8136 114.209 6.04324 113.553 6.04324ZM111.7 23.7982C110.58 23.7982 109.75 23.3807 109.21 22.5457C108.669 21.7106 108.534 20.4581 108.804 18.788L109.991 11.5545L108.312 10.5211V10.0201L115.03 8.76754H115.117L113.379 19.383C113.321 19.7587 113.331 20.0719 113.408 20.3224C113.505 20.5729 113.669 20.6981 113.9 20.6981C114.171 20.6981 114.441 20.5416 114.711 20.2284C115.001 19.8944 115.021 20.218 115.369 19.383L116.304 18.6941C115.783 20.218 115.155 21.4497 114.422 22.3891C113.688 23.3285 112.781 23.7982 111.7 23.7982Z" fill="#EA526F"/>
<path d="M113.553 6.04324C112.897 6.04324 112.347 5.8136 111.903 5.35433C111.478 4.89506 111.266 4.31053 111.266 3.60075C111.266 2.87009 111.478 2.27513 111.903 1.81586C112.347 1.35659 112.897 1.12695 113.553 1.12695C114.209 1.12695 114.75 1.35659 115.175 1.81586C115.599 2.27513 115.812 2.87009 115.812 3.60075C115.812 4.31053 115.599 4.89506 115.175 5.35433C114.75 5.8136 114.209 6.04324 113.553 6.04324ZM111.7 23.7982C110.58 23.7982 109.75 23.3807 109.21 22.5457C108.669 21.7106 108.534 20.4581 108.804 18.788L109.991 11.5545L108.312 10.5211V10.0201L115.03 8.76754H115.117L113.379 19.383C113.321 19.7587 113.331 20.0719 113.408 20.3224C113.505 20.5729 113.669 20.6981 113.9 20.6981C114.171 20.6981 114.441 20.5416 114.711 20.2284C115.001 19.8944 115.021 20.218 115.369 19.383L116.304 18.6941C115.783 20.218 115.155 21.4497 114.422 22.3891C113.688 23.3285 112.781 23.7982 111.7 23.7982Z" fill="#4B244A"/>
<path d="M90.5581 23.7983C89.7473 23.7983 89.0813 23.4538 88.5601 22.7649C88.0389 22.076 87.7783 21.1157 87.7783 19.884C87.7783 18.2557 88.0582 16.7631 88.618 15.4061C89.1779 14.0492 89.9114 12.8801 90.8187 11.899C91.726 10.8969 92.7201 10.1245 93.8011 9.58174C94.8821 9.03897 95.9439 8.76758 96.9863 8.76758C97.4487 8.76758 97.8669 8.81921 98.2407 8.92247C99.1297 9.16805 100.083 9.47201 100.963 9.19573L101.279 9.09676C101.312 9.08613 101.348 9.08072 101.383 9.08072C101.598 9.08072 101.762 9.27303 101.728 9.4853L100.142 19.383C100.085 19.7588 100.094 20.0719 100.171 20.3224C100.268 20.5729 100.432 20.6982 100.664 20.6982C100.934 20.6982 101.204 20.5416 101.474 20.2285C101.728 19.936 102.004 19.4516 102.302 18.7751C102.376 18.6071 102.565 18.5214 102.739 18.5811C102.92 18.6436 103.017 18.8413 102.952 19.0217C102.454 20.3955 101.865 21.518 101.185 22.3891C100.451 23.3285 99.544 23.7983 98.463 23.7983C97.5557 23.7983 96.8318 23.5269 96.2913 22.9841C95.7885 22.4605 95.5103 21.6843 95.4566 20.6556C95.4533 20.592 95.4012 20.5416 95.3376 20.5416C95.3001 20.5416 95.2647 20.5596 95.2424 20.5898C94.658 21.3814 94.1294 22.0124 93.6563 22.4831C93.1738 22.9423 92.6912 23.2764 92.2086 23.4851C91.726 23.6939 91.1758 23.7983 90.5581 23.7983ZM92.7008 17.9112C92.7008 18.788 92.7684 19.4247 92.9035 19.8214C93.0579 20.1972 93.2896 20.385 93.5984 20.385C93.9459 20.385 94.2741 20.2493 94.5829 19.978C94.883 19.7143 95.2012 19.3522 95.5377 18.8915C95.5571 18.865 95.5674 18.833 95.5674 18.8002C95.5674 18.7921 95.5681 18.784 95.5693 18.776L96.6747 11.7123C96.777 11.0584 96.4898 10.3333 95.828 10.3333C95.2296 10.3333 94.6891 10.6882 94.2065 11.3979C93.7432 12.0869 93.3764 13.0054 93.1062 14.1536C92.8359 15.3017 92.7008 16.5543 92.7008 17.9112Z" fill="#EA526F"/>
<path d="M88.1648 17.8799C88.1648 18.882 87.9138 19.8423 87.4119 20.7608C86.9293 21.6585 86.2344 22.3891 85.3271 22.9528C84.4391 23.5164 83.3678 23.7983 82.113 23.7983C81.0127 23.7983 80.1537 23.5477 79.536 23.0467C78.9182 22.5457 78.6094 22.0655 78.6094 21.6063C78.6094 21.5982 78.6094 21.5902 78.6095 21.5822C78.6136 21.2779 78.7834 21.0108 78.9568 20.7608L80.0005 19.0046C80.0213 18.9695 80.0751 18.9945 80.0616 19.0331C80.0603 19.0367 80.0597 19.0402 80.0597 19.044C80.064 19.9048 81.0815 22.2615 82.8948 22.076C83.4933 22.076 83.9662 21.9507 84.3137 21.7002C84.6804 21.4288 84.8638 21.0948 84.8638 20.6982C84.8638 20.3642 84.7963 20.0823 84.6611 19.8527C84.526 19.6022 84.2654 19.3308 83.8793 19.0385C83.4933 18.7463 82.9045 18.3705 82.113 17.9112C81.5725 17.5772 81.1092 17.2536 80.7231 16.9405C80.3371 16.6065 80.0379 16.2098 79.8255 15.7506C79.6325 15.2704 79.536 14.6442 79.536 13.8717C79.536 13.2872 79.7097 12.7027 80.0572 12.1182C80.4046 11.5128 80.8776 10.9596 81.476 10.4585C82.0744 9.95751 82.7404 9.55042 83.4739 9.23729C84.2268 8.92415 84.9893 8.76758 85.7615 8.76758C86.4178 8.76758 86.9486 8.89283 87.354 9.14334C87.7594 9.39386 88.0586 9.68612 88.2517 10.0201C88.4447 10.3541 88.5412 10.6464 88.5412 10.8969C88.5412 11.0431 88.5123 11.1683 88.4543 11.2727C88.4157 11.3562 88.3192 11.471 88.1648 11.6171C87.4478 12.2547 86.3481 12.1832 85.7196 11.4583L85.4569 11.1552C84.9797 10.6047 84.1531 10.2166 83.631 10.7246C83.5953 10.7594 83.5623 10.7959 83.5319 10.8343C83.3002 11.1266 83.1844 11.4501 83.1844 11.805C83.1844 12.1599 83.3195 12.5044 83.5898 12.8384C83.86 13.1515 84.4681 13.5795 85.414 14.1223C86.1475 14.5189 86.7846 14.9886 87.3251 15.5314C87.8849 16.0742 88.1648 16.857 88.1648 17.8799Z" fill="#EA526F"/>
<path d="M67.6489 23.7983C66.8381 23.7983 66.1721 23.4538 65.6509 22.7649C65.1297 22.076 64.8691 21.1157 64.8691 19.884C64.8691 18.2557 65.149 16.7631 65.7089 15.4061C66.2687 14.0492 67.0022 12.8801 67.9095 11.899C68.8168 10.8969 69.8109 10.1245 70.8919 9.58174C71.973 9.03897 73.0347 8.76758 74.0771 8.76758C74.5395 8.76758 74.9577 8.81921 75.3315 8.92247C76.2205 9.16805 77.1742 9.47201 78.0541 9.19573L78.3694 9.09676C78.4032 9.08613 78.4385 9.08072 78.474 9.08072C78.689 9.08072 78.8529 9.27304 78.8189 9.4853L77.2333 19.383C77.1754 19.7588 77.185 20.0719 77.2622 20.3224C77.3587 20.5729 77.5228 20.6982 77.7545 20.6982C78.0247 20.6982 78.295 20.5416 78.5652 20.2285C78.8167 19.9384 79.0901 19.4593 79.3853 18.7912C79.463 18.6153 79.6632 18.5273 79.8436 18.5936C80.0266 18.6609 80.1227 18.8623 80.0559 19.0454C79.5567 20.415 78.9553 21.5187 78.2757 22.3891C77.5421 23.3285 76.6348 23.7983 75.5538 23.7983C74.6465 23.7983 73.9227 23.5269 73.3821 22.9841C72.8793 22.4605 72.6011 21.6843 72.5474 20.6556C72.5441 20.592 72.492 20.5416 72.4285 20.5416C72.3909 20.5416 72.3555 20.5596 72.3332 20.5898C71.7489 21.3814 71.2202 22.0124 70.7472 22.4831C70.2646 22.9423 69.782 23.2764 69.2994 23.4851C68.8168 23.6939 68.2666 23.7983 67.6489 23.7983ZM69.7916 17.9112C69.7916 18.788 69.8592 19.4247 69.9943 19.8214C70.1487 20.1972 70.3804 20.385 70.6893 20.385C71.0367 20.385 71.3649 20.2493 71.6738 19.978C71.9738 19.7143 72.2921 19.3522 72.6285 18.8915C72.6479 18.865 72.6582 18.833 72.6582 18.8002C72.6582 18.7921 72.6589 18.784 72.6601 18.776L73.7655 11.7123C73.8678 11.0584 73.5807 10.3333 72.9188 10.3333C72.3204 10.3333 71.7799 10.6882 71.2973 11.3979C70.834 12.0869 70.4673 13.0054 70.197 14.1536C69.9268 15.3017 69.7916 16.5543 69.7916 17.9112Z" fill="#EA526F"/>
<path d="M58.3682 23.7993C56.6695 23.7993 55.1927 23.434 53.938 22.7033C52.6832 21.9727 51.7084 20.9706 51.0135 19.6972C50.3378 18.4238 50 16.9729 50 15.3446C50 13.6745 50.2992 12.0775 50.8976 10.5535C51.5154 9.00871 52.3647 7.6309 53.4457 6.4201C54.5268 5.20929 55.7912 4.25944 57.2389 3.57053C58.6867 2.86075 60.2503 2.50586 61.9298 2.50586C63.1073 2.50586 64.0436 2.65199 64.7385 2.94425C66.0267 3.48603 66.6662 4.87562 66.5533 6.26858L66.2686 9.78269C66.2548 9.95279 66.1127 10.0838 65.9421 10.0838C65.8095 10.0838 65.69 10.0039 65.6393 9.88135L64.1073 6.17433C63.6496 5.06669 62.8571 4.04214 61.659 4.01102C61.6054 4.00962 61.5508 4.00893 61.4954 4.00893C60.6075 4.00893 59.7774 4.32206 59.0053 4.94834C58.2331 5.57462 57.5575 6.44097 56.9783 7.5474C56.3992 8.65382 55.9456 9.94813 55.6174 11.4303C55.2893 12.8916 55.1252 14.4678 55.1252 16.1587C55.1252 17.954 55.463 19.4049 56.1386 20.5113C56.8336 21.5969 57.7988 22.1397 59.0342 22.1397C59.4589 22.1397 59.8836 22.0979 60.3083 22.0144C60.7523 21.91 61.9623 21.6514 62.8672 20.7951C62.8672 20.7951 63.8852 19.8166 64.4507 18.9603C64.8853 18.3024 65.181 17.2787 65.2946 16.8398C65.3266 16.7162 65.4373 16.6284 65.565 16.6284C65.7269 16.6284 65.8531 16.7686 65.8363 16.9295L65.4737 20.3992C65.397 21.1327 65.1072 21.8538 64.503 22.2768C63.6147 22.8986 62.6876 23.1247 61.814 23.3609C60.6557 23.6532 59.5072 23.7993 58.3682 23.7993Z" fill="#EA526F"/>
<path d="M105.051 23.7986C103.931 23.7986 103.101 23.381 102.561 22.546C102.02 21.711 101.885 20.4584 102.155 18.7883L104.761 2.78694L102.763 1.75358V1.25256L109.828 0H109.915L106.73 19.3833C106.672 19.7591 106.682 20.0722 106.759 20.3227C106.856 20.5732 107.02 20.6985 107.251 20.6985C107.522 20.6985 107.792 20.5419 108.062 20.2288C108.352 19.8948 108.67 19.3102 109.018 18.4752L109.655 18.6944C109.133 20.2183 108.506 21.45 107.773 22.3894C107.039 23.3289 106.132 23.7986 105.051 23.7986Z" fill="#EA526F"/>
<path d="M105.051 23.7986C103.931 23.7986 103.101 23.381 102.561 22.546C102.02 21.711 101.885 20.4584 102.155 18.7883L104.761 2.78694L102.763 1.75358V1.25256L109.828 0H109.915L106.73 19.3833C106.672 19.7591 106.682 20.0722 106.759 20.3227C106.856 20.5732 107.02 20.6985 107.251 20.6985C107.522 20.6985 107.792 20.5419 108.062 20.2288C108.352 19.8948 108.67 19.3102 109.018 18.4752L109.655 18.6944C109.133 20.2183 108.506 21.45 107.773 22.3894C107.039 23.3289 106.132 23.7986 105.051 23.7986Z" fill="#4B244A"/>
<defs>
<linearGradient id="paint0_linear_126_4255" x1="3.81818" y1="24.0565" x2="35.1273" y2="24.0565" gradientUnits="userSpaceOnUse">
<stop stop-color="#EA526F"/>
<stop offset="1" stop-color="#4B244A"/>
</linearGradient>
</defs>
</svg>
