<svg width="24" height="24" viewBox="0 0 24 24" fill="none" xmlns="http://www.w3.org/2000/svg">
<g clip-path="url(#clip0_126_4174)">
<path d="M2.125 20.75C1.60933 20.75 1.16792 20.5664 0.80075 20.1992C0.433583 19.8321 0.25 19.3907 0.25 18.875V7.875C0.25 7.35933 0.433583 6.91792 0.80075 6.55075C1.16792 6.18358 1.60933 6 2.125 6H6.15V4.124C6.15 3.608 6.33358 3.16667 6.70075 2.8C7.06792 2.43333 7.50933 2.25 8.025 2.25H11.975C12.4907 2.25 12.9321 2.43358 13.2992 2.80075C13.6664 3.16792 13.85 3.60933 13.85 4.125V6H17.875C18.3907 6 18.8321 6.18358 19.1992 6.55075C19.5664 6.91792 19.75 7.35933 19.75 7.875V18.875C19.75 19.3907 19.5664 19.8321 19.1992 20.1992C18.8321 20.5664 18.3907 20.75 17.875 20.75H2.125ZM8.025 6H11.975V4.125H8.025V6ZM17.875 14.925H12.8625V16.85H7.1375V14.925H2.125V18.875H17.875V14.925ZM9.0125 14.975H10.9875V13H9.0125V14.975ZM2.125 13.05H7.1375V11.125H12.8625V13.05H17.875V7.875H2.125V13.05Z" fill="#64748B"/>
</g>
<defs>
<clipPath id="clip0_126_4174">
<rect width="24" height="24" fill="white"/>
</clipPath>
</defs>
</svg>
