<svg width="24" height="24" viewBox="0 0 24 24" fill="none" xmlns="http://www.w3.org/2000/svg">
<path d="M2.25 18.75V16.875H12.075V18.75H2.25ZM2.25 13.875V12H7.1375V13.875H2.25ZM2.25 9.0375V7.1625H7.1375V9.0375H2.25ZM20.45 18.75L16.65 15.0125C16.2583 15.2875 15.8333 15.4917 15.375 15.625C14.9167 15.7583 14.45 15.825 13.975 15.825C12.6367 15.825 11.4958 15.3582 10.5525 14.4245C9.60917 13.4908 9.1375 12.3617 9.1375 11.037C9.1375 9.71233 9.60917 8.58333 10.5525 7.65C11.4958 6.71667 12.6367 6.25 13.975 6.25C15.3167 6.25 16.4563 6.71725 17.3938 7.65175C18.3313 8.58642 18.8 9.71667 18.8 11.0425C18.8 11.5058 18.7333 11.9667 18.6 12.425C18.4667 12.8833 18.2583 13.3042 17.975 13.6875L21.75 17.4375L20.45 18.75ZM13.975 13.95C14.7945 13.95 15.491 13.6688 16.0645 13.1063C16.6382 12.5438 16.925 11.8563 16.925 11.0438C16.925 10.2313 16.6376 9.54167 16.0628 8.975C15.4881 8.40833 14.7902 8.125 13.969 8.125C13.148 8.125 12.45 8.40817 11.875 8.9745C11.3 9.54083 11.0125 10.2285 11.0125 11.0375C11.0125 11.8542 11.3005 12.5438 11.8765 13.1063C12.4527 13.6688 13.1522 13.95 13.975 13.95Z" fill="#64748B"/>
</svg>
