<svg width="20" height="19" viewBox="0 0 20 19" fill="none" xmlns="http://www.w3.org/2000/svg">
<path d="M1.875 14.65C1.35833 14.6333 0.916667 14.4458 0.55 14.0875C0.183333 13.7292 0 13.2917 0 12.775V5C0 4.75833 0.0645833 4.525 0.19375 4.3C0.322917 4.075 0.508333 3.9 0.75 3.775L8.325 0L15.725 3.775C15.9167 3.86667 16.0813 4.01875 16.2188 4.23125C16.3563 4.44375 16.45 4.65833 16.5 4.875H13.775L8.325 2.1L1.875 5.3V14.65ZM4.6875 18.5C4.17183 18.5 3.73042 18.3164 3.36325 17.9492C2.99608 17.5821 2.8125 17.1407 2.8125 16.625V7.6875C2.8125 7.17183 2.99608 6.73042 3.36325 6.36325C3.73042 5.99608 4.17183 5.8125 4.6875 5.8125H17.625C18.1407 5.8125 18.5821 5.99608 18.9492 6.36325C19.3164 6.73042 19.5 7.17183 19.5 7.6875V16.625C19.5 17.1407 19.3164 17.5821 18.9492 17.9492C18.5821 18.3164 18.1407 18.5 17.625 18.5H4.6875ZM11.1625 12.9375L4.6875 9.5625V16.625H17.625V9.5625L11.1625 12.9375ZM11.1625 11.0625L17.6 7.6875H4.7125L11.1625 11.0625Z" fill="#64748B"/>
</svg>
