<svg width="24" height="24" viewBox="0 0 24 24" fill="none" xmlns="http://www.w3.org/2000/svg">
<g clip-path="url(#clip0_126_4186)">
<g clip-path="url(#clip1_126_4186)">
<path d="M11.9687 12.8496C11.1812 12.8496 10.5145 12.5767 9.96865 12.0309C9.42282 11.485 9.1499 10.8184 9.1499 10.0309C9.1499 9.24336 9.42457 8.57878 9.9739 8.03711C10.5232 7.49544 11.1902 7.22461 11.9749 7.22461C12.7527 7.22461 13.4138 7.49744 13.9582 8.04311C14.5027 8.58861 14.7749 9.25111 14.7749 10.0306C14.7749 10.8099 14.5041 11.4746 13.9624 12.0246C13.4207 12.5746 12.7562 12.8496 11.9687 12.8496ZM5.0999 15.8496C4.58424 15.8496 4.14282 15.666 3.77565 15.2989C3.40849 14.9317 3.2249 14.4903 3.2249 13.9746V6.09961C3.2249 5.58394 3.40849 5.14253 3.77565 4.77536C4.14282 4.40819 4.58424 4.22461 5.0999 4.22461H18.8499C19.3656 4.22461 19.807 4.40819 20.1742 4.77536C20.5413 5.14253 20.7249 5.58394 20.7249 6.09961V13.9746C20.7249 14.4903 20.5413 14.9317 20.1742 15.2989C19.807 15.666 19.3656 15.8496 18.8499 15.8496H5.0999ZM7.0249 13.9746H16.9249C16.9249 13.4329 17.1134 12.9725 17.4904 12.5934C17.8674 12.2142 18.3206 12.0246 18.8499 12.0246V8.04961C18.3166 8.04961 17.8624 7.86003 17.4874 7.48086C17.1124 7.10169 16.9249 6.64128 16.9249 6.09961H7.0249C7.0249 6.64128 6.8364 7.10169 6.4594 7.48086C6.0824 7.86003 5.62924 8.04961 5.0999 8.04961V12.0246C5.63324 12.0246 6.0874 12.2142 6.4624 12.5934C6.8374 12.9725 7.0249 13.4329 7.0249 13.9746ZM17.7749 19.7746H1.1499C0.634236 19.7746 0.192819 19.591 -0.174348 19.2239C-0.541514 18.8567 -0.725098 18.4153 -0.725098 17.8996V7.17461H1.1499V17.8996H17.7749V19.7746Z" fill="#64748B"/>
</g>
</g>
<defs>
<clipPath id="clip0_126_4186">
<rect width="24" height="24" fill="white"/>
</clipPath>
<clipPath id="clip1_126_4186">
<rect width="24" height="24" fill="white" transform="translate(-2)"/>
</clipPath>
</defs>
</svg>
