<svg width="18" height="18" viewBox="0 0 18 18" fill="none" xmlns="http://www.w3.org/2000/svg">
<path d="M8.77225 13.625C9.04075 13.625 9.26667 13.5343 9.45 13.3528C9.63333 13.1711 9.725 12.9461 9.725 12.6778C9.725 12.4093 9.63425 12.1833 9.45275 12C9.27108 11.8167 9.04608 11.725 8.77775 11.725C8.50925 11.725 8.28333 11.8158 8.1 11.9973C7.91667 12.1789 7.825 12.4039 7.825 12.6723C7.825 12.9408 7.91575 13.1667 8.09725 13.35C8.27892 13.5333 8.50392 13.625 8.77225 13.625ZM7.8375 9.775H9.7125V3.875H7.8375V9.775ZM5.125 17.55L0 12.425V5.125L5.125 0H12.425L17.55 5.125V12.425L12.425 17.55H5.125ZM5.918 15.675H11.6375L15.675 11.632V5.9125L11.632 1.875H5.9125L1.875 5.918V11.6375L5.918 15.675Z" fill="#64748B"/>
</svg>
