<svg width="24" height="24" viewBox="0 0 24 24" fill="none" xmlns="http://www.w3.org/2000/svg">
<g clip-path="url(#clip0_126_4197)">
<path d="M6.5625 17.5875L9.75 15.6625L12.925 17.6L12.0875 13.975L14.9 11.5625L11.2 11.225L9.75 7.8L8.2875 11.2125L4.5875 11.5375L7.4 13.975L6.5625 17.5875ZM3.725 21.5L5.3125 14.65L0 10.0625L7.0125 9.45L9.75 3L12.475 9.45L19.4875 10.0625L14.175 14.65L15.7625 21.5L9.75 17.8625L3.725 21.5ZM15.1 7.875L15.6125 5.7L13.8875 4.25L16.175 4.05L17.0625 2L17.95 4.05L20.2375 4.25L18.5125 5.7L19.025 7.875L17.0625 6.725L15.1 7.875Z" fill="#64748B"/>
</g>
<defs>
<clipPath id="clip0_126_4197">
<rect width="24" height="24" fill="white"/>
</clipPath>
</defs>
</svg>
