<svg width="16" height="20" viewBox="0 0 16 20" fill="none" xmlns="http://www.w3.org/2000/svg">
<path d="M7.775 19.5C5.5235 18.93 3.66475 17.6313 2.19875 15.604C0.732917 13.5765 0 11.3252 0 8.85V2.925L7.775 0L15.55 2.925V8.85C15.55 11.3252 14.8171 13.5765 13.3512 15.604C11.8853 17.6313 10.0265 18.93 7.775 19.5ZM7.775 17.5375C9.36667 17.0375 10.6938 16.0625 11.7563 14.6125C12.8188 13.1625 13.4417 11.5431 13.625 9.75425H7.775V2L1.875 4.21125V9.3C1.875 9.41667 1.89142 9.56667 1.92425 9.75H7.775V17.5375Z" fill="#64748B"/>
</svg>
