<svg width="20" height="20" viewBox="0 0 20 20" fill="none" xmlns="http://www.w3.org/2000/svg">
<path d="M7.175 19.525L6.775 16.4C6.55 16.3167 6.32917 16.2146 6.1125 16.0938C5.89583 15.9729 5.69583 15.8458 5.5125 15.7125L2.625 16.9125L0 12.3625L2.525 10.45C2.50833 10.342 2.5 10.2379 2.5 10.1378V9.775C2.5 9.675 2.50208 9.56667 2.50625 9.45C2.51042 9.33333 2.52083 9.2 2.5375 9.05L0 7.1625L2.625 2.6375L5.55 3.8625C5.71667 3.72917 5.90208 3.60417 6.10625 3.4875C6.31042 3.37083 6.53333 3.2625 6.775 3.1625L7.175 0H12.4L12.8 3.125C13.0333 3.21667 13.2479 3.32292 13.4438 3.44375C13.6396 3.56458 13.8292 3.70417 14.0125 3.8625L16.95 2.6375L19.575 7.1625L16.975 9.101C16.9917 9.217 17 9.32292 17 9.41875V10.1418C17 10.2448 16.9875 10.3517 16.9625 10.4625L19.5375 12.3625L16.9125 16.9125L14.0125 15.6875C13.8542 15.8125 13.6813 15.9292 13.4938 16.0375C13.3063 16.1458 13.075 16.2667 12.8 16.4L12.4 19.525H7.175ZM8.79475 17.65H10.7375L11.1 14.9875C11.6 14.8542 12.0583 14.6646 12.475 14.4187C12.8917 14.1729 13.2792 13.8667 13.6375 13.5L16.125 14.55L17.0875 12.875L14.9125 11.25C14.9875 11.0167 15.0417 10.7763 15.075 10.529C15.1083 10.2817 15.125 10.0303 15.125 9.775C15.125 9.51667 15.1104 9.26875 15.0813 9.03125C15.0521 8.79375 14.9958 8.55 14.9125 8.3L17.0875 6.65L16.15 4.975L13.625 6.05C13.3 5.7 12.9167 5.39583 12.475 5.1375C12.0333 4.87917 11.575 4.6875 11.1 4.5625L10.7768 1.875H8.8125L8.475 4.55C7.94167 4.69167 7.475 4.87708 7.075 5.10625C6.675 5.33542 6.27917 5.64167 5.8875 6.025L3.425 4.975L2.4625 6.65L4.6 8.2375C4.51667 8.50417 4.45833 8.75833 4.425 9C4.39167 9.24167 4.375 9.49558 4.375 9.76175C4.375 10.0122 4.38958 10.2583 4.41875 10.5C4.44792 10.7417 4.50417 11 4.5875 11.275L2.4625 12.875L3.427 14.55L5.875 13.5C6.26667 13.8917 6.67292 14.2083 7.09375 14.45C7.51458 14.6917 7.975 14.875 8.475 15L8.79475 17.65ZM9.78075 13.15C10.7103 13.15 11.5042 12.8204 12.1625 12.1613C12.8208 11.5021 13.15 10.7063 13.15 9.77375C13.15 8.84125 12.8205 8.04583 12.1615 7.3875C11.5027 6.72917 10.7072 6.4 9.775 6.4C8.83333 6.4 8.03542 6.72958 7.38125 7.38875C6.72708 8.04792 6.4 8.84375 6.4 9.77625C6.4 10.7087 6.72708 11.5042 7.38125 12.1625C8.03542 12.8208 8.83525 13.15 9.78075 13.15Z" fill="#64748B"/>
</svg>
