<svg width="24" height="24" viewBox="0 0 24 24" fill="none" xmlns="http://www.w3.org/2000/svg">
<g clip-path="url(#clip0_126_4161)">
<g clip-path="url(#clip1_126_4161)">
<path d="M1.3623 19.6752V17.0252C1.3623 16.4752 1.50189 15.9731 1.78105 15.5189C2.06022 15.0648 2.43747 14.7168 2.9128 14.4749C3.92914 13.9751 4.95814 13.5981 5.9998 13.3439C7.04147 13.0898 8.09147 12.9627 9.1498 12.9627C10.2081 12.9627 11.2561 13.0898 12.2936 13.3439C13.3311 13.5981 14.358 13.9751 15.3743 14.4749C15.8496 14.7168 16.2269 15.0648 16.5061 15.5189C16.7852 15.9731 16.9248 16.4752 16.9248 17.0252V19.6752H1.3623ZM18.8873 19.6752V16.8502C18.8873 16.1252 18.6852 15.4398 18.2811 14.7939C17.8769 14.1481 17.3081 13.596 16.5748 13.1377C17.3831 13.2377 18.1436 13.4023 18.8561 13.6314C19.5686 13.8606 20.2373 14.146 20.8623 14.4877C21.4373 14.796 21.8769 15.1502 22.1811 15.5502C22.4852 15.9502 22.6373 16.3835 22.6373 16.8502V19.6752H18.8873ZM9.1498 12.0252C8.08314 12.0252 7.1748 11.6502 6.4248 10.9002C5.6748 10.1502 5.2998 9.24186 5.2998 8.1752C5.2998 7.10853 5.6748 6.2002 6.4248 5.4502C7.1748 4.7002 8.08314 4.3252 9.1498 4.3252C10.2165 4.3252 11.1248 4.7002 11.8748 5.4502C12.6248 6.2002 12.9998 7.10853 12.9998 8.1752C12.9998 9.24186 12.6248 10.1502 11.8748 10.9002C11.1248 11.6502 10.2165 12.0252 9.1498 12.0252ZM18.6998 8.1627C18.6998 9.22153 18.3248 10.1279 17.5748 10.8817C16.8248 11.6357 15.9165 12.0127 14.8498 12.0127C14.6915 12.0127 14.4816 11.9932 14.2203 11.9542C13.959 11.915 13.7438 11.872 13.5748 11.8252C14.0168 11.3137 14.3565 10.7462 14.5938 10.1227C14.8311 9.49936 14.9498 8.84811 14.9498 8.16895C14.9498 7.48978 14.8311 6.83561 14.5936 6.20645C14.3561 5.57728 14.0165 5.00853 13.5748 4.5002C13.7831 4.4252 13.9956 4.37728 14.2123 4.35645C14.429 4.33561 14.6415 4.3252 14.8498 4.3252C15.9165 4.3252 16.8248 4.70095 17.5748 5.45245C18.3248 6.20395 18.6998 7.10736 18.6998 8.1627ZM3.2373 17.8002H15.0498V17.0252C15.0498 16.8387 15.004 16.6692 14.9123 16.5167C14.8206 16.364 14.6956 16.246 14.5373 16.1627C13.6456 15.721 12.7526 15.3898 11.8581 15.1689C10.9634 14.9481 10.0606 14.8377 9.1498 14.8377C8.23614 14.8377 7.33064 14.9481 6.4333 15.1689C5.53597 15.3898 4.64147 15.721 3.7498 16.1627C3.59147 16.246 3.46647 16.364 3.3748 16.5167C3.28314 16.6692 3.2373 16.8387 3.2373 17.0252V17.8002ZM9.1483 10.1502C9.69097 10.1502 10.1561 9.95695 10.5436 9.57045C10.9311 9.18395 11.1248 8.71936 11.1248 8.1767C11.1248 7.63403 10.9316 7.16895 10.5451 6.78145C10.1586 6.39395 9.69397 6.2002 9.1513 6.2002C8.60864 6.2002 8.14355 6.39345 7.75605 6.77995C7.36855 7.16645 7.1748 7.63103 7.1748 8.1737C7.1748 8.71636 7.36805 9.18145 7.75455 9.56895C8.14105 9.95645 8.60564 10.1502 9.1483 10.1502Z" fill="#64748B"/>
</g>
</g>
<defs>
<clipPath id="clip0_126_4161">
<rect width="24" height="24" fill="white"/>
</clipPath>
<clipPath id="clip1_126_4161">
<rect width="24" height="24" fill="white"/>
</clipPath>
</defs>
</svg>
